<svg width="21" height="20" viewBox="0 0 21 20" fill="none" xmlns="http://www.w3.org/2000/svg">
<path d="M18.207 7.29304L13.207 2.29304C13.0184 2.11088 12.7658 2.01009 12.5036 2.01237C12.2414 2.01465 11.9906 2.11981 11.8052 2.30522C11.6198 2.49063 11.5146 2.74144 11.5123 3.00364C11.51 3.26584 11.6108 3.51844 11.793 3.70704L15.086 7.00004H3.5C3.23478 7.00004 2.98043 7.1054 2.79289 7.29293C2.60536 7.48047 2.5 7.73482 2.5 8.00004C2.5 8.26526 2.60536 8.51961 2.79289 8.70715C2.98043 8.89468 3.23478 9.00004 3.5 9.00004H15.086L11.793 12.293C11.6108 12.4816 11.51 12.7342 11.5123 12.9964C11.5146 13.2586 11.6198 13.5095 11.8052 13.6949C11.9906 13.8803 12.2414 13.9854 12.5036 13.9877C12.7658 13.99 13.0184 13.8892 13.207 13.707L18.207 8.70704C18.3945 8.51951 18.4998 8.26521 18.4998 8.00004C18.4998 7.73488 18.3945 7.48057 18.207 7.29304Z" fill="#004BAD"/>
</svg>
