<svg width="20" height="20" viewBox="0 0 20 20" fill="none" xmlns="http://www.w3.org/2000/svg">
<path d="M17.707 9.29304L12.707 4.29304C12.5184 4.11088 12.2658 4.01009 12.0036 4.01237C11.7414 4.01465 11.4906 4.11981 11.3052 4.30522C11.1198 4.49063 11.0146 4.74144 11.0123 5.00364C11.01 5.26584 11.1108 5.51844 11.293 5.70704L14.586 9.00004H3C2.73478 9.00004 2.48043 9.1054 2.29289 9.29293C2.10536 9.48047 2 9.73482 2 10C2 10.2653 2.10536 10.5196 2.29289 10.7071C2.48043 10.8947 2.73478 11 3 11H14.586L11.293 14.293C11.1108 14.4816 11.01 14.7342 11.0123 14.9964C11.0146 15.2586 11.1198 15.5095 11.3052 15.6949C11.4906 15.8803 11.7414 15.9854 12.0036 15.9877C12.2658 15.99 12.5184 15.8892 12.707 15.707L17.707 10.707C17.8945 10.5195 17.9998 10.2652 17.9998 10C17.9998 9.73488 17.8945 9.48057 17.707 9.29304Z" fill="white"/>
</svg>
