<svg width="65" height="64" viewBox="0 0 65 64" fill="none" xmlns="http://www.w3.org/2000/svg">
<path d="M30.2227 22.8752V3.42871" stroke="#121212" stroke-width="3" stroke-linecap="round" stroke-linejoin="round"/>
<path d="M32.5 40.9821C37.0714 45.5535 46.2143 50.2857 57.6429 50.2857" stroke="#121212" stroke-width="3" stroke-linecap="round"/>
<path d="M12.9215 61.675C12.9215 60.5737 12.9242 59.2229 12.9279 57.8963C12.9379 54.2825 12.1353 50.6903 10.2352 47.6165C6.78304 42.032 3.92969 38.3625 3.92969 27.4284C3.92969 17.2728 7.55227 10.3402 14.1881 6.63062" stroke="#121212" stroke-width="3" stroke-linecap="round" stroke-linejoin="round"/>
<path d="M53.6664 42.1725V39.407L57.2536 39.3168C57.8438 39.3166 58.4257 39.1742 58.9491 38.9017C59.473 38.6293 59.9233 38.2346 60.2625 37.7514C62.6191 34.3916 53.0232 26.2444 52.3411 21.3477C51.2678 13.6401 47.2966 8.83474 41.8828 6.16406" stroke="#121212" stroke-width="3" stroke-linecap="round" stroke-linejoin="round"/>
<path d="M40.4336 55.9991V61.675" stroke="#121212" stroke-width="3" stroke-linecap="round" stroke-linejoin="round"/>
<path d="M30.2249 41.1429C36.0763 41.1429 39.3677 37.8515 39.3677 32C39.3677 26.1486 36.0763 22.8572 30.2249 22.8572C24.3735 22.8572 21.082 26.1486 21.082 32C21.082 37.8515 24.3735 41.1429 30.2249 41.1429Z" stroke="#121212" stroke-width="3" stroke-linecap="round" stroke-linejoin="round"/>
</svg>
