<svg width="24" height="24" viewBox="0 0 24 24" fill="none" xmlns="http://www.w3.org/2000/svg">
<g clip-path="url(#clip0_101_73)">
<path fill-rule="evenodd" clip-rule="evenodd" d="M12 0C18.6667 0 24 5.33333 24 12C24 18.6667 18.6667 24 12 24C5.33333 24 0 18.6667 0 12C0 5.33333 5.33333 0 12 0ZM8.93333 4.66667H15.2C17.6 4.66667 19.4667 6.53333 19.4667 8.8V15.0667C19.4667 17.3333 17.6 19.2 15.2 19.2H8.93333C6.53333 19.2 4.66667 17.3333 4.66667 15.0667V8.93333C4.66667 6.53333 6.53333 4.66667 8.93333 4.66667ZM12 8.26667C14.1333 8.26667 15.8667 10 15.8667 12.1333C15.8667 14.2667 14.1333 16 12 16C9.86667 16 8 14.2667 8 12.1333C8 10 9.73333 8.26667 12 8.26667ZM12 9.86667C13.2 9.86667 14.2667 10.9333 14.2667 12.1333C14.2667 13.3333 13.2 14.4 12 14.4C10.8 14.4 9.73333 13.3333 9.73333 12.1333C9.73333 10.9333 10.6667 9.86667 12 9.86667ZM15.7333 7.6C16.1333 7.6 16.5333 7.86667 16.5333 8.4C16.5333 8.8 16.2667 9.2 15.7333 9.2C15.3333 9.2 14.9333 8.93333 14.9333 8.4C14.9333 7.86667 15.3333 7.6 15.7333 7.6ZM9.6 6.26667H14.5333C16.4 6.26667 17.8667 7.73333 17.8667 9.6V14.5333C17.8667 16.4 16.4 17.8667 14.5333 17.8667H9.6C7.73333 17.8667 6.26667 16.4 6.26667 14.5333V9.6C6.13333 7.73333 7.73333 6.26667 9.6 6.26667Z" fill="#121212"/>
</g>
<defs>
<clipPath id="clip0_101_73">
<rect width="24" height="24" fill="white"/>
</clipPath>
</defs>
</svg>
