<svg width="24" height="24" viewBox="0 0 24 24" fill="none" xmlns="http://www.w3.org/2000/svg">
<g clip-path="url(#clip0_101_75)">
<path d="M24 12C24 18.64 18.64 24 12 24C5.36 24 0 18.64 0 12C0 5.36 5.36 0 12 0C18.64 0 24 5.36 24 12ZM9.04 6.24C9.04 5.28 8.24 4.48 7.04 4.48C5.84 4.48 5.04 5.2 5.04 6.24C5.04 7.2 5.84 8 7.04 8C8.24 8 9.04 7.2 9.04 6.24ZM8.48 9.52H5.52V18H8.56V9.52H8.48ZM19.52 13.52C19.52 10.8 18.16 9.04 16 9.04C14.8 9.04 13.92 9.76 13.52 10.88L13.44 9.6H10.4C10.4 9.92 10.48 11.6 10.48 11.6V18.08H13.52V13.6C13.52 12.4 14.08 11.6 14.96 11.6C15.84 11.6 16.48 12.08 16.48 13.6V18.08H19.52V13.52Z" fill="#121212"/>
</g>
<defs>
<clipPath id="clip0_101_75">
<rect width="24" height="24" fill="white"/>
</clipPath>
</defs>
</svg>
