<svg xmlns="http://www.w3.org/2000/svg" xmlns:xlink="http://www.w3.org/1999/xlink" width="500" zoomAndPan="magnify" viewBox="0 0 375 374.999991" height="500" preserveAspectRatio="xMidYMid meet" version="1.0"><defs><g/><clipPath id="b3751cf7d6"><path d="M 26.78125 156.007812 L 68 156.007812 L 68 219 L 26.78125 219 Z M 26.78125 156.007812 " clip-rule="nonzero"/></clipPath><clipPath id="a7ff2547a9"><path d="M 26.78125 156.007812 L 68 156.007812 L 68 204 L 26.78125 204 Z M 26.78125 156.007812 " clip-rule="nonzero"/></clipPath><clipPath id="c99adbce58"><path d="M 82 156.007812 L 94.28125 156.007812 L 94.28125 169 L 82 169 Z M 82 156.007812 " clip-rule="nonzero"/></clipPath><clipPath id="5fbbd3e0d8"><path d="M 52 156.007812 L 94.28125 156.007812 L 94.28125 219 L 52 219 Z M 52 156.007812 " clip-rule="nonzero"/></clipPath><clipPath id="3b1f8c4817"><path d="M 52 156.007812 L 94.28125 156.007812 L 94.28125 204 L 52 204 Z M 52 156.007812 " clip-rule="nonzero"/></clipPath></defs><rect x="-37.5" width="450" fill="#ffffff" y="-37.499999" height="449.999989" fill-opacity="1"/><rect x="-37.5" width="450" fill="#ffffff" y="-37.499999" height="449.999989" fill-opacity="1"/><g clip-path="url(#b3751cf7d6)"><path fill="#407bce" d="M 42.90625 159.164062 L 64.691406 180.949219 C 65.128906 181.386719 65.523438 181.867188 65.867188 182.382812 C 66.210938 182.898438 66.5 183.441406 66.738281 184.015625 C 66.976562 184.585938 67.15625 185.175781 67.277344 185.785156 C 67.398438 186.394531 67.457031 187.007812 67.457031 187.628906 C 67.457031 188.25 67.398438 188.863281 67.277344 189.472656 C 67.15625 190.078125 66.976562 190.671875 66.738281 191.242188 C 66.5 191.816406 66.210938 192.359375 65.867188 192.875 C 65.523438 193.390625 65.128906 193.867188 64.691406 194.308594 L 42.90625 216.09375 C 36.953125 222.042969 26.777344 217.828125 26.78125 209.410156 L 26.78125 165.835938 C 26.777344 157.429688 36.953125 153.210938 42.90625 159.164062 Z M 42.90625 159.164062 " fill-opacity="1" fill-rule="nonzero"/></g><g clip-path="url(#a7ff2547a9)"><path fill="#3871c1" d="M 42.90625 159.164062 C 36.988281 153.246094 26.929688 157.382812 26.789062 165.695312 C 26.789062 165.695312 61.070312 198.132812 55.617188 203.417969 L 64.710938 194.328125 C 65.148438 193.886719 65.542969 193.410156 65.886719 192.894531 C 66.230469 192.378906 66.519531 191.835938 66.757812 191.261719 C 66.996094 190.691406 67.175781 190.097656 67.296875 189.492188 C 67.417969 188.882812 67.476562 188.269531 67.476562 187.648438 C 67.476562 187.027344 67.417969 186.414062 67.296875 185.804688 C 67.175781 185.195312 66.996094 184.605469 66.757812 184.035156 C 66.519531 183.460938 66.230469 182.917969 65.886719 182.402344 C 65.542969 181.886719 65.148438 181.40625 64.710938 180.96875 Z M 42.90625 159.164062 " fill-opacity="1" fill-rule="nonzero"/></g><g clip-path="url(#c99adbce58)"><path fill="#2a1873" d="M 94.5625 162.25 C 94.5625 162.65625 94.523438 163.058594 94.445312 163.457031 C 94.367188 163.855469 94.25 164.238281 94.09375 164.613281 C 93.9375 164.988281 93.75 165.34375 93.523438 165.679688 C 93.296875 166.019531 93.042969 166.332031 92.753906 166.617188 C 92.46875 166.902344 92.15625 167.160156 91.820312 167.382812 C 91.484375 167.609375 91.128906 167.800781 90.753906 167.953125 C 90.378906 168.109375 89.992188 168.226562 89.59375 168.304688 C 89.199219 168.386719 88.796875 168.425781 88.390625 168.425781 C 87.984375 168.425781 87.585938 168.386719 87.1875 168.304688 C 86.789062 168.226562 86.402344 168.109375 86.027344 167.953125 C 85.652344 167.800781 85.296875 167.609375 84.960938 167.382812 C 84.625 167.160156 84.3125 166.902344 84.027344 166.617188 C 83.738281 166.332031 83.484375 166.019531 83.257812 165.679688 C 83.03125 165.34375 82.84375 164.988281 82.6875 164.613281 C 82.53125 164.238281 82.414062 163.855469 82.335938 163.457031 C 82.257812 163.058594 82.21875 162.65625 82.21875 162.25 C 82.21875 161.847656 82.257812 161.445312 82.335938 161.046875 C 82.414062 160.648438 82.53125 160.265625 82.6875 159.890625 C 82.84375 159.515625 83.03125 159.160156 83.257812 158.824219 C 83.484375 158.484375 83.738281 158.171875 84.027344 157.886719 C 84.3125 157.601562 84.625 157.34375 84.960938 157.121094 C 85.296875 156.894531 85.652344 156.703125 86.027344 156.546875 C 86.402344 156.394531 86.789062 156.277344 87.1875 156.199219 C 87.585938 156.117188 87.984375 156.078125 88.390625 156.078125 C 88.796875 156.078125 89.199219 156.117188 89.59375 156.199219 C 89.992188 156.277344 90.378906 156.394531 90.753906 156.546875 C 91.128906 156.703125 91.484375 156.894531 91.820312 157.121094 C 92.15625 157.34375 92.46875 157.601562 92.753906 157.886719 C 93.042969 158.171875 93.296875 158.484375 93.523438 158.824219 C 93.75 159.160156 93.9375 159.515625 94.09375 159.890625 C 94.25 160.265625 94.367188 160.648438 94.445312 161.046875 C 94.523438 161.445312 94.5625 161.847656 94.5625 162.25 Z M 94.5625 162.25 " fill-opacity="1" fill-rule="nonzero"/><path fill="#2a1873" d="M 94.5625 162.25 C 94.5625 162.65625 94.523438 163.058594 94.445312 163.457031 C 94.367188 163.855469 94.25 164.238281 94.09375 164.613281 C 93.9375 164.988281 93.75 165.34375 93.523438 165.679688 C 93.296875 166.019531 93.042969 166.332031 92.753906 166.617188 C 92.46875 166.902344 92.15625 167.160156 91.820312 167.382812 C 91.484375 167.609375 91.128906 167.800781 90.753906 167.953125 C 90.378906 168.109375 89.992188 168.226562 89.59375 168.304688 C 89.199219 168.386719 88.796875 168.425781 88.390625 168.425781 C 87.984375 168.425781 87.585938 168.386719 87.1875 168.304688 C 86.789062 168.226562 86.402344 168.109375 86.027344 167.953125 C 85.652344 167.800781 85.296875 167.609375 84.960938 167.382812 C 84.625 167.160156 84.3125 166.902344 84.027344 166.617188 C 83.738281 166.332031 83.484375 166.019531 83.257812 165.679688 C 83.03125 165.34375 82.84375 164.988281 82.6875 164.613281 C 82.53125 164.238281 82.414062 163.855469 82.335938 163.457031 C 82.257812 163.058594 82.21875 162.65625 82.21875 162.25 C 82.21875 161.847656 82.257812 161.445312 82.335938 161.046875 C 82.414062 160.648438 82.53125 160.265625 82.6875 159.890625 C 82.84375 159.515625 83.03125 159.160156 83.257812 158.824219 C 83.484375 158.484375 83.738281 158.171875 84.027344 157.886719 C 84.3125 157.601562 84.625 157.34375 84.960938 157.121094 C 85.296875 156.894531 85.652344 156.703125 86.027344 156.546875 C 86.402344 156.394531 86.789062 156.277344 87.1875 156.199219 C 87.585938 156.117188 87.984375 156.078125 88.390625 156.078125 C 88.796875 156.078125 89.199219 156.117188 89.59375 156.199219 C 89.992188 156.277344 90.378906 156.394531 90.753906 156.546875 C 91.128906 156.703125 91.484375 156.894531 91.820312 157.121094 C 92.15625 157.34375 92.46875 157.601562 92.753906 157.886719 C 93.042969 158.171875 93.296875 158.484375 93.523438 158.824219 C 93.75 159.160156 93.9375 159.515625 94.09375 159.890625 C 94.25 160.265625 94.367188 160.648438 94.445312 161.046875 C 94.523438 161.445312 94.5625 161.847656 94.5625 162.25 Z M 94.5625 162.25 " fill-opacity="1" fill-rule="nonzero"/></g><g clip-path="url(#5fbbd3e0d8)"><path fill="#4d05d5" d="M 91.792969 181.003906 L 70.007812 159.214844 C 64.160156 153.363281 48.570312 160.152344 53.90625 165.484375 L 69.570312 181.15625 C 70.011719 181.597656 70.402344 182.074219 70.746094 182.589844 C 71.09375 183.105469 71.382812 183.648438 71.621094 184.21875 C 71.859375 184.792969 72.039062 185.382812 72.15625 185.992188 C 72.277344 186.601562 72.339844 187.214844 72.339844 187.835938 C 72.339844 188.453125 72.277344 189.070312 72.15625 189.675781 C 72.039062 190.285156 71.859375 190.875 71.621094 191.449219 C 71.382812 192.019531 71.09375 192.566406 70.746094 193.082031 C 70.402344 193.597656 70.011719 194.074219 69.570312 194.511719 L 53.914062 210.171875 C 49.140625 214.941406 64.21875 221.976562 70.007812 216.1875 L 91.792969 194.398438 C 92.234375 193.960938 92.628906 193.484375 92.976562 192.964844 C 93.324219 192.449219 93.617188 191.902344 93.855469 191.328125 C 94.09375 190.753906 94.277344 190.160156 94.398438 189.550781 C 94.519531 188.941406 94.582031 188.324219 94.582031 187.703125 C 94.582031 187.078125 94.519531 186.460938 94.398438 185.851562 C 94.277344 185.242188 94.09375 184.648438 93.855469 184.074219 C 93.617188 183.5 93.324219 182.953125 92.976562 182.4375 C 92.628906 181.917969 92.234375 181.441406 91.792969 181.003906 Z M 91.792969 181.003906 " fill-opacity="1" fill-rule="nonzero"/></g><g clip-path="url(#3b1f8c4817)"><path fill="#480abe" d="M 91.792969 181.003906 L 70.007812 159.214844 C 64.160156 153.363281 48.570312 160.152344 53.90625 165.484375 L 69.570312 181.15625 C 70.328125 181.914062 70.9375 182.773438 71.402344 183.734375 C 71.863281 184.699219 72.15625 185.710938 72.273438 186.773438 C 77.671875 193.113281 82.160156 199.265625 83.09375 203.101562 L 91.808594 194.386719 C 92.25 193.945312 92.640625 193.46875 92.988281 192.949219 C 93.332031 192.433594 93.625 191.886719 93.863281 191.3125 C 94.097656 190.738281 94.277344 190.148438 94.398438 189.539062 C 94.519531 188.929688 94.582031 188.3125 94.582031 187.691406 C 94.578125 187.070312 94.519531 186.453125 94.394531 185.84375 C 94.273438 185.234375 94.09375 184.644531 93.855469 184.070312 C 93.613281 183.496094 93.320312 182.949219 92.976562 182.433594 C 92.628906 181.917969 92.234375 181.441406 91.792969 181.003906 Z M 91.792969 181.003906 " fill-opacity="1" fill-rule="nonzero"/></g><g fill="#2a1873" fill-opacity="1"><g transform="translate(107.655533, 203.386029)"><g><path d="M 8.921875 0 L 3.515625 0 L 3.515625 -29.5 L 15.9375 -29.5 C 17.425781 -29.5 18.796875 -29.253906 20.046875 -28.765625 C 21.296875 -28.273438 22.375 -27.582031 23.28125 -26.6875 C 24.195312 -25.800781 24.910156 -24.75 25.421875 -23.53125 C 25.929688 -22.320312 26.1875 -21 26.1875 -19.5625 C 26.1875 -18.039062 25.9375 -16.660156 25.4375 -15.421875 C 24.9375 -14.179688 24.234375 -13.109375 23.328125 -12.203125 C 22.421875 -11.304688 21.34375 -10.613281 20.09375 -10.125 C 18.851562 -9.644531 17.5 -9.40625 16.03125 -9.40625 L 8.921875 -9.40625 Z M 8.921875 -24.6875 L 8.921875 -14.234375 L 15.765625 -14.234375 C 16.703125 -14.234375 17.550781 -14.46875 18.3125 -14.9375 C 19.070312 -15.40625 19.671875 -16.039062 20.109375 -16.84375 C 20.554688 -17.644531 20.78125 -18.550781 20.78125 -19.5625 C 20.78125 -20.457031 20.554688 -21.296875 20.109375 -22.078125 C 19.660156 -22.859375 19.054688 -23.488281 18.296875 -23.96875 C 17.535156 -24.445312 16.675781 -24.6875 15.71875 -24.6875 Z M 8.921875 -24.6875 "/></g></g></g><g fill="#2a1873" fill-opacity="1"><g transform="translate(134.505242, 203.386029)"><g><path d="M 29.875 0 L 24.15625 0 L 21.828125 -5.703125 L 8.25 -5.703125 L 5.90625 0 L 0.1875 0 L 12.46875 -29.515625 L 17.59375 -29.515625 Z M 14.84375 -21.84375 L 10.09375 -10.21875 L 19.984375 -10.21875 L 15.203125 -21.84375 L 15.078125 -22.5625 L 15.015625 -22.5625 Z M 14.84375 -21.84375 "/></g></g></g><g fill="#2a1873" fill-opacity="1"><g transform="translate(164.586458, 203.386029)"><g><path d="M 17.328125 0 L 11.9375 0 L 11.9375 -11.21875 L 0.328125 -29.5 L 6.609375 -29.5 L 14.640625 -16.03125 L 14.65625 -16.03125 L 22.625 -29.5 L 28.984375 -29.5 L 17.328125 -11.25 Z M 17.328125 0 "/></g></g></g><g fill="#2a1873" fill-opacity="1"><g transform="translate(193.886908, 203.386029)"><g><path d="M 15.09375 0 L 9.71875 0 L 9.71875 -24.6875 L 0.9375 -24.6875 L 0.9375 -29.5 L 23.875 -29.5 L 23.875 -24.6875 L 15.09375 -24.6875 Z M 15.09375 0 "/></g></g></g><g fill="#2a1873" fill-opacity="1"><g transform="translate(218.697948, 203.386029)"><g><path d="M 8.921875 0 L 3.515625 0 L 3.515625 -29.5 L 16.25 -29.5 C 17.738281 -29.5 19.109375 -29.269531 20.359375 -28.8125 C 21.609375 -28.351562 22.6875 -27.695312 23.59375 -26.84375 C 24.507812 -26 25.21875 -24.984375 25.71875 -23.796875 C 26.226562 -22.617188 26.484375 -21.316406 26.484375 -19.890625 C 26.484375 -18.503906 26.234375 -17.238281 25.734375 -16.09375 C 25.234375 -14.945312 24.535156 -13.96875 23.640625 -13.15625 C 22.742188 -12.34375 21.6875 -11.722656 20.46875 -11.296875 L 27.15625 0 L 20.953125 0 L 15.125 -10.46875 C 14.9375 -10.457031 14.742188 -10.453125 14.546875 -10.453125 C 14.359375 -10.453125 14.164062 -10.453125 13.96875 -10.453125 L 8.921875 -10.453125 Z M 8.921875 -24.6875 L 8.921875 -15.015625 L 16.046875 -15.015625 C 17.003906 -15.023438 17.863281 -15.234375 18.625 -15.640625 C 19.382812 -16.054688 19.984375 -16.628906 20.421875 -17.359375 C 20.859375 -18.085938 21.078125 -18.929688 21.078125 -19.890625 C 21.078125 -20.785156 20.851562 -21.59375 20.40625 -22.3125 C 19.957031 -23.039062 19.351562 -23.617188 18.59375 -24.046875 C 17.832031 -24.472656 16.976562 -24.6875 16.03125 -24.6875 Z M 8.921875 -24.6875 "/></g></g></g><g fill="#2a1873" fill-opacity="1"><g transform="translate(246.783871, 203.386029)"><g><path d="M 29.875 0 L 24.15625 0 L 21.828125 -5.703125 L 8.25 -5.703125 L 5.90625 0 L 0.1875 0 L 12.46875 -29.515625 L 17.59375 -29.515625 Z M 14.84375 -21.84375 L 10.09375 -10.21875 L 19.984375 -10.21875 L 15.203125 -21.84375 L 15.078125 -22.5625 L 15.015625 -22.5625 Z M 14.84375 -21.84375 "/></g></g></g><g fill="#2a1873" fill-opacity="1"><g transform="translate(276.865088, 203.386029)"><g><path d="M 17 0.625 C 15.269531 0.625 13.625 0.367188 12.0625 -0.140625 C 10.5 -0.648438 9.066406 -1.375 7.765625 -2.3125 C 6.472656 -3.257812 5.351562 -4.375 4.40625 -5.65625 C 3.46875 -6.945312 2.738281 -8.363281 2.21875 -9.90625 C 1.695312 -11.457031 1.4375 -13.085938 1.4375 -14.796875 C 1.4375 -16.515625 1.695312 -18.144531 2.21875 -19.6875 C 2.738281 -21.226562 3.46875 -22.632812 4.40625 -23.90625 C 5.351562 -25.1875 6.472656 -26.296875 7.765625 -27.234375 C 9.066406 -28.179688 10.5 -28.910156 12.0625 -29.421875 C 13.625 -29.929688 15.269531 -30.1875 17 -30.1875 C 18.5625 -30.1875 20.109375 -29.957031 21.640625 -29.5 C 23.179688 -29.039062 24.613281 -28.335938 25.9375 -27.390625 C 27.269531 -26.441406 28.398438 -25.242188 29.328125 -23.796875 C 30.253906 -22.347656 30.890625 -20.640625 31.234375 -18.671875 L 25.71875 -18.671875 C 25.332031 -20.191406 24.707031 -21.4375 23.84375 -22.40625 C 22.988281 -23.375 21.957031 -24.085938 20.75 -24.546875 C 19.550781 -25.015625 18.253906 -25.25 16.859375 -25.25 C 15.460938 -25.25 14.15625 -25 12.9375 -24.5 C 11.726562 -24 10.664062 -23.285156 9.75 -22.359375 C 8.832031 -21.429688 8.113281 -20.328125 7.59375 -19.046875 C 7.082031 -17.773438 6.828125 -16.347656 6.828125 -14.765625 C 6.828125 -13.160156 7.082031 -11.71875 7.59375 -10.4375 C 8.113281 -9.164062 8.832031 -8.070312 9.75 -7.15625 C 10.664062 -6.25 11.726562 -5.550781 12.9375 -5.0625 C 14.15625 -4.582031 15.460938 -4.34375 16.859375 -4.34375 C 18.253906 -4.34375 19.546875 -4.570312 20.734375 -5.03125 C 21.929688 -5.488281 22.960938 -6.203125 23.828125 -7.171875 C 24.703125 -8.140625 25.328125 -9.378906 25.703125 -10.890625 L 31.234375 -10.890625 C 30.890625 -8.921875 30.253906 -7.207031 29.328125 -5.75 C 28.398438 -4.300781 27.273438 -3.109375 25.953125 -2.171875 C 24.640625 -1.234375 23.210938 -0.53125 21.671875 -0.0625 C 20.140625 0.394531 18.582031 0.625 17 0.625 Z M 17 0.625 "/></g></g></g><g fill="#2a1873" fill-opacity="1"><g transform="translate(309.548861, 203.386029)"><g><path d="M 27.53125 -29.5 L 17 -16.4375 L 29.015625 0 L 22.625 0 L 13.46875 -12.515625 L 8.921875 -6.8125 L 8.921875 0 L 3.515625 0 L 3.515625 -29.5 L 8.921875 -29.5 L 8.921875 -13.96875 L 21.21875 -29.5 Z M 27.53125 -29.5 "/></g></g></g></svg>