<svg width="24" height="24" viewBox="0 0 24 24" fill="none" xmlns="http://www.w3.org/2000/svg">
<g clip-path="url(#clip0_101_69)">
<path d="M24 12C24 18.64 18.64 24 12 24C5.36 24 0 18.64 0 12C0 5.36 5.36 0 12 0C18.64 0 24 5.36 24 12ZM21.04 7.6C20.4 7.84 19.76 8.08 19.04 8.16C19.76 7.76 20.24 7.04 20.48 6.24C19.84 6.64 19.12 6.88 18.32 7.04C17.68 6.4 16.8 5.92 15.84 5.92C13.92 5.92 12.48 7.44 12.48 9.36C12.48 9.6 12.48 9.92 12.56 10.16C9.76 10 7.2 8.64 5.52 6.56C5.28 7.12 5.04 7.68 5.04 8.32C5.04 9.52 5.6 10.56 6.56 11.12C6 11.12 5.44 10.96 5.04 10.72C5.04 12.4 6.24 13.76 7.76 14.08C7.52 14.16 7.2 14.16 6.88 14.16C6.64 14.16 6.4 14.16 6.24 14.08C6.64 15.44 7.92 16.32 9.44 16.4C8.24 17.28 6.8 17.92 5.2 17.92C4.96 17.92 4.64 17.92 4.4 17.84C5.92 18.8 7.68 19.36 9.6 19.36C15.84 19.36 19.28 14.16 19.28 9.68V9.2C20 8.88 20.56 8.24 21.04 7.6Z" fill="#121212"/>
</g>
<defs>
<clipPath id="clip0_101_69">
<rect width="24" height="24" fill="white"/>
</clipPath>
</defs>
</svg>
