<svg width="348" height="606" viewBox="0 0 348 606" fill="none" xmlns="http://www.w3.org/2000/svg">
<path opacity="0.8" d="M-297.993 605.203C-327.263 605.203 -353.513 600.94 -376.971 592.211C-414.137 578.611 -444.103 553.643 -463.15 519.947C-481.037 488.484 -487.773 452.149 -481.966 417.64C-476.159 382.726 -459.434 347.406 -432.024 312.695C-430.398 310.665 -429.004 308.838 -427.378 306.808C-408.33 281.84 -373.951 223.785 -366.75 164.715C-366.518 162.482 -366.286 160.249 -366.053 157.814C-365.821 156.19 -365.589 154.566 -365.356 153.145C-364.892 150.506 -364.427 147.867 -363.963 145.228C-357.223 111.735 -339.343 65.0476 -293.343 31.9603C-273.373 17.548 -248.053 7.19552 -222.263 2.72972C-194.853 -2.14199 -167.913 -0.518074 -144.453 7.80452C-115.873 17.751 -94.0431 36.223 -72.9031 54.0861C-55.7131 68.4984 -37.8331 83.5196 -16.6931 94.0753C11.4169 107.878 44.4069 113.562 76.4569 118.84C91.3269 121.275 106.657 123.914 121.287 127.365C186.797 142.386 246.257 177.098 288.307 225.206C330.347 273.112 351.257 329.949 347.307 384.756C343.357 438.142 316.647 482.597 274.137 506.753C243.477 524.21 203.517 532.939 148.467 533.75C132.907 533.953 117.107 533.75 101.777 533.547C73.907 533.141 45.0969 532.533 16.9969 535.374C-31.553 540.246 -78.2431 555.064 -123.313 569.477C-140.963 575.16 -159.313 580.844 -177.433 585.919C-222.263 598.91 -262.223 605.203 -297.993 605.203ZM-191.603 1.10582C-201.363 1.10582 -211.583 1.91781 -221.573 3.74471C-247.353 8.21052 -272.443 18.5629 -292.183 32.7722C-337.943 65.6566 -355.603 112.344 -362.569 145.431C-363.034 148.07 -363.498 150.709 -363.963 153.348C-364.195 154.769 -364.427 156.393 -364.66 158.017C-364.892 160.452 -365.124 162.685 -365.356 164.918C-372.557 224.191 -406.936 282.449 -426.216 307.417C-427.842 309.447 -429.468 311.274 -430.862 313.304C-458.04 348.015 -474.765 383.132 -480.572 417.843C-486.379 452.149 -479.643 488.281 -461.989 519.541C-442.941 552.832 -413.44 577.799 -376.506 591.197C-324.703 610.278 -259.433 608.045 -177.433 584.904C-159.313 579.829 -140.963 573.942 -123.313 568.462C-78.0131 554.049 -31.3231 539.231 17.4569 534.359C45.5669 531.518 74.5969 531.924 102.477 532.533C117.807 532.736 133.597 533.141 148.937 532.736C203.757 531.721 243.477 523.195 274.137 505.738C316.417 481.582 342.897 437.533 346.847 384.553C351.027 329.746 330.117 273.315 288.077 225.612C246.027 177.91 187.027 143.198 121.757 128.177C107.117 124.726 91.7869 122.29 76.9269 119.652C44.8669 114.171 11.647 108.69 -16.453 94.6843C-37.833 84.1286 -55.7131 69.1074 -72.9031 54.4921C-94.0431 36.629 -115.873 18.3599 -144.213 8.41352C-159.083 3.74472 -175.113 1.10582 -191.603 1.10582Z" fill="#004BAD"/>
</svg>
