<svg width="50" height="47" viewBox="0 0 50 47" fill="none" xmlns="http://www.w3.org/2000/svg">
<path fill-rule="evenodd" clip-rule="evenodd" d="M26.8731 3.76491C29.6851 4.40591 33.4781 2.46888 35.4171 4.57588C37.8591 7.22688 35.5221 11.9339 37.2801 15.0669C38.3761 17.0199 43.7411 16.1839 43.1401 18.3369C42.1131 22.0159 33.4801 21.9179 34.3281 25.6429C35.3131 29.9709 43.3121 28.3359 46.1921 31.7439C48.5861 34.5749 51.9721 40.9909 48.5431 42.4599C43.6571 44.5539 38.9051 36.2479 33.6511 37.1179C30.6621 37.6139 32.8111 43.5159 30.4991 45.4489C28.6151 47.0249 24.7381 47.7649 23.1641 45.8879C20.7281 42.9809 25.3071 35.5429 21.5611 34.7839C15.6871 33.5919 11.0101 44.4579 5.43113 42.2909C1.35313 40.7059 8.50712 34.1879 11.1451 30.7359C12.9331 28.3969 19.7971 28.0269 18.2351 25.5339C14.3511 19.3359 2.94913 19.9539 0.159125 13.2069C-1.37787 9.4919 8.64714 12.5519 11.8331 10.0559C14.7311 7.7849 13.2381 1.71588 16.6451 0.290881C19.9931 -1.10912 23.3301 2.95591 26.8731 3.76491Z" fill="#8934AD"/>
</svg>
